<?xml version="1.0" encoding="UTF-8" standalone="no"?>
<!DOCTYPE svg PUBLIC "-//W3C//DTD SVG 1.1//EN" "http://www.w3.org/Graphics/SVG/1.1/DTD/svg11.dtd">
<svg width="100%" height="100%" viewBox="0 0 1418 1418" version="1.1" xmlns="http://www.w3.org/2000/svg" xmlns:xlink="http://www.w3.org/1999/xlink" xml:space="preserve" xmlns:serif="http://www.serif.com/" style="fill-rule:evenodd;clip-rule:evenodd;stroke-linecap:round;stroke-linejoin:round;stroke-miterlimit:1.5;">
    <g transform="matrix(13.569,0,0,11.4058,-6133.59,-3266)">
        <rect x="452.031" y="286.346" width="104.453" height="124.263"/>
    </g>
    <g opacity="0.1">
        <g transform="matrix(0.546528,0,0,0.347002,-161.417,-102.487)">
            <rect x="295.351" y="295.351" width="216.11" height="340.374" style="stroke:white;stroke-width:9.1px;"/>
        </g>
        <g transform="matrix(0.546528,0,0,0.347002,-43.3071,-102.487)">
            <rect x="295.351" y="295.351" width="216.11" height="340.374" style="stroke:white;stroke-width:9.1px;"/>
        </g>
        <g transform="matrix(0.546528,0,0,0.347002,74.8031,-102.487)">
            <rect x="295.351" y="295.351" width="216.11" height="340.374" style="stroke:white;stroke-width:9.1px;"/>
        </g>
        <g transform="matrix(0.546528,0,0,0.347002,192.913,-102.487)">
            <rect x="295.351" y="295.351" width="216.11" height="340.374" style="stroke:white;stroke-width:9.1px;"/>
        </g>
        <g transform="matrix(0.546528,0,0,0.347002,311.024,-102.487)">
            <rect x="295.351" y="295.351" width="216.11" height="340.374" style="stroke:white;stroke-width:9.1px;"/>
        </g>
        <g transform="matrix(0.546528,0,0,0.347002,429.134,-102.487)">
            <rect x="295.351" y="295.351" width="216.11" height="340.374" style="stroke:white;stroke-width:9.1px;"/>
        </g>
        <g transform="matrix(0.546528,0,0,0.347002,547.244,-102.487)">
            <rect x="295.351" y="295.351" width="216.11" height="340.374" style="stroke:white;stroke-width:9.1px;"/>
        </g>
        <g transform="matrix(0.546528,0,0,0.347002,665.354,-102.487)">
            <rect x="295.351" y="295.351" width="216.11" height="340.374" style="stroke:white;stroke-width:9.1px;"/>
        </g>
        <g transform="matrix(0.546528,0,0,0.347002,783.465,-102.487)">
            <rect x="295.351" y="295.351" width="216.11" height="340.374" style="stroke:white;stroke-width:9.1px;"/>
        </g>
        <g transform="matrix(0.546528,0,0,0.347002,901.575,-102.487)">
            <rect x="295.351" y="295.351" width="216.11" height="340.374" style="stroke:white;stroke-width:9.1px;"/>
        </g>
        <g transform="matrix(0.546528,0,0,0.347002,1019.69,-102.487)">
            <rect x="295.351" y="295.351" width="216.11" height="340.374" style="stroke:white;stroke-width:9.1px;"/>
        </g>
        <g transform="matrix(0.546528,0,0,0.347002,1137.8,-102.487)">
            <rect x="295.351" y="295.351" width="216.11" height="340.374" style="stroke:white;stroke-width:9.1px;"/>
        </g>
        <g transform="matrix(0.546528,0,0,0.347002,-161.417,15.623)">
            <rect x="295.351" y="295.351" width="216.11" height="340.374" style="stroke:white;stroke-width:9.1px;"/>
        </g>
        <g transform="matrix(0.546528,0,0,0.347002,-43.3071,15.623)">
            <rect x="295.351" y="295.351" width="216.11" height="340.374" style="stroke:white;stroke-width:9.1px;"/>
        </g>
        <g transform="matrix(0.546528,0,0,0.347002,74.8031,15.623)">
            <rect x="295.351" y="295.351" width="216.11" height="340.374" style="stroke:white;stroke-width:9.1px;"/>
        </g>
        <g transform="matrix(0.546528,0,0,0.347002,192.913,15.623)">
            <rect x="295.351" y="295.351" width="216.11" height="340.374" style="stroke:white;stroke-width:9.1px;"/>
        </g>
        <g transform="matrix(0.546528,0,0,0.347002,311.024,15.623)">
            <rect x="295.351" y="295.351" width="216.11" height="340.374" style="stroke:white;stroke-width:9.1px;"/>
        </g>
        <g transform="matrix(0.546528,0,0,0.347002,429.134,15.623)">
            <rect x="295.351" y="295.351" width="216.11" height="340.374" style="stroke:white;stroke-width:9.1px;"/>
        </g>
        <g transform="matrix(0.546528,0,0,0.347002,547.244,15.623)">
            <rect x="295.351" y="295.351" width="216.11" height="340.374" style="stroke:white;stroke-width:9.1px;"/>
        </g>
        <g transform="matrix(0.546528,0,0,0.347002,665.354,15.623)">
            <rect x="295.351" y="295.351" width="216.11" height="340.374" style="stroke:white;stroke-width:9.1px;"/>
        </g>
        <g transform="matrix(0.546528,0,0,0.347002,783.465,15.623)">
            <rect x="295.351" y="295.351" width="216.11" height="340.374" style="stroke:white;stroke-width:9.1px;"/>
        </g>
        <g transform="matrix(0.546528,0,0,0.347002,901.575,15.623)">
            <rect x="295.351" y="295.351" width="216.11" height="340.374" style="stroke:white;stroke-width:9.1px;"/>
        </g>
        <g transform="matrix(0.546528,0,0,0.347002,1019.69,15.623)">
            <rect x="295.351" y="295.351" width="216.11" height="340.374" style="stroke:white;stroke-width:9.1px;"/>
        </g>
        <g transform="matrix(0.546528,0,0,0.347002,1137.8,15.623)">
            <rect x="295.351" y="295.351" width="216.11" height="340.374" style="stroke:white;stroke-width:9.1px;"/>
        </g>
        <g transform="matrix(0.546528,0,0,0.347002,-161.417,133.733)">
            <rect x="295.351" y="295.351" width="216.11" height="340.374" style="stroke:white;stroke-width:9.1px;"/>
        </g>
        <g transform="matrix(0.546528,0,0,0.347002,-43.3071,133.733)">
            <rect x="295.351" y="295.351" width="216.11" height="340.374" style="stroke:white;stroke-width:9.1px;"/>
        </g>
        <g transform="matrix(0.546528,0,0,0.347002,74.8031,133.733)">
            <rect x="295.351" y="295.351" width="216.11" height="340.374" style="stroke:white;stroke-width:9.1px;"/>
        </g>
        <g transform="matrix(0.546528,0,0,0.347002,192.913,133.733)">
            <rect x="295.351" y="295.351" width="216.11" height="340.374" style="stroke:white;stroke-width:9.1px;"/>
        </g>
        <g transform="matrix(0.546528,0,0,0.347002,311.024,133.733)">
            <rect x="295.351" y="295.351" width="216.11" height="340.374" style="stroke:white;stroke-width:9.1px;"/>
        </g>
        <g transform="matrix(0.546528,0,0,0.347002,429.134,133.733)">
            <rect x="295.351" y="295.351" width="216.11" height="340.374" style="stroke:white;stroke-width:9.1px;"/>
        </g>
        <g transform="matrix(0.546528,0,0,0.347002,547.244,133.733)">
            <rect x="295.351" y="295.351" width="216.11" height="340.374" style="stroke:white;stroke-width:9.1px;"/>
        </g>
        <g transform="matrix(0.546528,0,0,0.347002,665.354,133.733)">
            <rect x="295.351" y="295.351" width="216.11" height="340.374" style="stroke:white;stroke-width:9.1px;"/>
        </g>
        <g transform="matrix(0.546528,0,0,0.347002,783.465,133.733)">
            <rect x="295.351" y="295.351" width="216.11" height="340.374" style="stroke:white;stroke-width:9.1px;"/>
        </g>
        <g transform="matrix(0.546528,0,0,0.347002,901.575,133.733)">
            <rect x="295.351" y="295.351" width="216.11" height="340.374" style="stroke:white;stroke-width:9.1px;"/>
        </g>
        <g transform="matrix(0.546528,0,0,0.347002,1019.69,133.733)">
            <rect x="295.351" y="295.351" width="216.11" height="340.374" style="stroke:white;stroke-width:9.1px;"/>
        </g>
        <g transform="matrix(0.546528,0,0,0.347002,1137.8,133.733)">
            <rect x="295.351" y="295.351" width="216.11" height="340.374" style="stroke:white;stroke-width:9.1px;"/>
        </g>
        <g transform="matrix(0.546528,0,0,0.347002,-161.417,251.844)">
            <rect x="295.351" y="295.351" width="216.11" height="340.374" style="stroke:white;stroke-width:9.1px;"/>
        </g>
        <g transform="matrix(0.546528,0,0,0.347002,-43.3071,251.844)">
            <rect x="295.351" y="295.351" width="216.11" height="340.374" style="stroke:white;stroke-width:9.1px;"/>
        </g>
        <g transform="matrix(0.546528,0,0,0.347002,74.8031,251.844)">
            <rect x="295.351" y="295.351" width="216.11" height="340.374" style="stroke:white;stroke-width:9.1px;"/>
        </g>
        <g transform="matrix(0.546528,0,0,0.347002,192.913,251.844)">
            <rect x="295.351" y="295.351" width="216.11" height="340.374" style="stroke:white;stroke-width:9.1px;"/>
        </g>
        <g transform="matrix(0.546528,0,0,0.347002,311.024,251.844)">
            <rect x="295.351" y="295.351" width="216.11" height="340.374" style="stroke:white;stroke-width:9.1px;"/>
        </g>
        <g transform="matrix(0.546528,0,0,0.347002,429.134,251.844)">
            <rect x="295.351" y="295.351" width="216.11" height="340.374" style="stroke:white;stroke-width:9.1px;"/>
        </g>
        <g transform="matrix(0.546528,0,0,0.347002,547.244,251.844)">
            <rect x="295.351" y="295.351" width="216.11" height="340.374" style="stroke:white;stroke-width:9.1px;"/>
        </g>
        <g transform="matrix(0.546528,0,0,0.347002,665.354,251.844)">
            <rect x="295.351" y="295.351" width="216.11" height="340.374" style="stroke:white;stroke-width:9.1px;"/>
        </g>
        <g transform="matrix(0.546528,0,0,0.347002,783.465,251.844)">
            <rect x="295.351" y="295.351" width="216.11" height="340.374" style="stroke:white;stroke-width:9.1px;"/>
        </g>
        <g transform="matrix(0.546528,0,0,0.347002,901.575,251.844)">
            <rect x="295.351" y="295.351" width="216.11" height="340.374" style="stroke:white;stroke-width:9.1px;"/>
        </g>
        <g transform="matrix(0.546528,0,0,0.347002,1019.69,251.844)">
            <rect x="295.351" y="295.351" width="216.11" height="340.374" style="stroke:white;stroke-width:9.1px;"/>
        </g>
        <g transform="matrix(0.546528,0,0,0.347002,1137.8,251.844)">
            <rect x="295.351" y="295.351" width="216.11" height="340.374" style="stroke:white;stroke-width:9.1px;"/>
        </g>
        <g transform="matrix(0.546528,0,0,0.347002,-161.417,369.954)">
            <rect x="295.351" y="295.351" width="216.11" height="340.374" style="stroke:white;stroke-width:9.1px;"/>
        </g>
        <g transform="matrix(0.546528,0,0,0.347002,-43.3071,369.954)">
            <rect x="295.351" y="295.351" width="216.11" height="340.374" style="stroke:white;stroke-width:9.1px;"/>
        </g>
        <g transform="matrix(0.546528,0,0,0.347002,74.8031,369.954)">
            <rect x="295.351" y="295.351" width="216.11" height="340.374" style="stroke:white;stroke-width:9.1px;"/>
        </g>
        <g transform="matrix(0.546528,0,0,0.347002,192.913,369.954)">
            <rect x="295.351" y="295.351" width="216.11" height="340.374" style="stroke:white;stroke-width:9.1px;"/>
        </g>
        <g transform="matrix(0.546528,0,0,0.347002,311.024,369.954)">
            <rect x="295.351" y="295.351" width="216.11" height="340.374" style="stroke:white;stroke-width:9.1px;"/>
        </g>
        <g transform="matrix(0.546528,0,0,0.347002,429.134,369.954)">
            <rect x="295.351" y="295.351" width="216.11" height="340.374" style="stroke:white;stroke-width:9.1px;"/>
        </g>
        <g transform="matrix(0.546528,0,0,0.347002,547.244,369.954)">
            <rect x="295.351" y="295.351" width="216.11" height="340.374" style="stroke:white;stroke-width:9.1px;"/>
        </g>
        <g transform="matrix(0.546528,0,0,0.347002,665.354,369.954)">
            <rect x="295.351" y="295.351" width="216.11" height="340.374" style="stroke:white;stroke-width:9.1px;"/>
        </g>
        <g transform="matrix(0.546528,0,0,0.347002,783.465,369.954)">
            <rect x="295.351" y="295.351" width="216.11" height="340.374" style="stroke:white;stroke-width:9.1px;"/>
        </g>
        <g transform="matrix(0.546528,0,0,0.347002,901.575,369.954)">
            <rect x="295.351" y="295.351" width="216.11" height="340.374" style="stroke:white;stroke-width:9.1px;"/>
        </g>
        <g transform="matrix(0.546528,0,0,0.347002,1019.69,369.954)">
            <rect x="295.351" y="295.351" width="216.11" height="340.374" style="stroke:white;stroke-width:9.1px;"/>
        </g>
        <g transform="matrix(0.546528,0,0,0.347002,1137.8,369.954)">
            <rect x="295.351" y="295.351" width="216.11" height="340.374" style="stroke:white;stroke-width:9.1px;"/>
        </g>
        <g transform="matrix(0.546528,0,0,0.347002,-161.417,488.064)">
            <rect x="295.351" y="295.351" width="216.11" height="340.374" style="stroke:white;stroke-width:9.1px;"/>
        </g>
        <g transform="matrix(0.546528,0,0,0.347002,-43.3071,488.064)">
            <rect x="295.351" y="295.351" width="216.11" height="340.374" style="stroke:white;stroke-width:9.1px;"/>
        </g>
        <g transform="matrix(0.546528,0,0,0.347002,74.8031,488.064)">
            <rect x="295.351" y="295.351" width="216.11" height="340.374" style="stroke:white;stroke-width:9.1px;"/>
        </g>
        <g transform="matrix(0.546528,0,0,0.347002,192.913,488.064)">
            <rect x="295.351" y="295.351" width="216.11" height="340.374" style="stroke:white;stroke-width:9.1px;"/>
        </g>
        <g transform="matrix(0.546528,0,0,0.347002,311.024,488.064)">
            <rect x="295.351" y="295.351" width="216.11" height="340.374" style="stroke:white;stroke-width:9.1px;"/>
        </g>
        <g transform="matrix(0.546528,0,0,0.347002,429.134,488.064)">
            <rect x="295.351" y="295.351" width="216.11" height="340.374" style="stroke:white;stroke-width:9.1px;"/>
        </g>
        <g transform="matrix(0.546528,0,0,0.347002,547.244,488.064)">
            <rect x="295.351" y="295.351" width="216.11" height="340.374" style="stroke:white;stroke-width:9.1px;"/>
        </g>
        <g transform="matrix(0.546528,0,0,0.347002,665.354,488.064)">
            <rect x="295.351" y="295.351" width="216.11" height="340.374" style="stroke:white;stroke-width:9.1px;"/>
        </g>
        <g transform="matrix(0.546528,0,0,0.347002,783.465,488.064)">
            <rect x="295.351" y="295.351" width="216.11" height="340.374" style="stroke:white;stroke-width:9.1px;"/>
        </g>
        <g transform="matrix(0.546528,0,0,0.347002,901.575,488.064)">
            <rect x="295.351" y="295.351" width="216.11" height="340.374" style="stroke:white;stroke-width:9.1px;"/>
        </g>
        <g transform="matrix(0.546528,0,0,0.347002,1019.69,488.064)">
            <rect x="295.351" y="295.351" width="216.11" height="340.374" style="stroke:white;stroke-width:9.1px;"/>
        </g>
        <g transform="matrix(0.546528,0,0,0.347002,1137.8,488.064)">
            <rect x="295.351" y="295.351" width="216.11" height="340.374" style="stroke:white;stroke-width:9.1px;"/>
        </g>
        <g transform="matrix(0.546528,0,0,0.347002,-161.417,606.174)">
            <rect x="295.351" y="295.351" width="216.11" height="340.374" style="stroke:white;stroke-width:9.1px;"/>
        </g>
        <g transform="matrix(0.546528,0,0,0.347002,-43.3071,606.174)">
            <rect x="295.351" y="295.351" width="216.11" height="340.374" style="stroke:white;stroke-width:9.1px;"/>
        </g>
        <g transform="matrix(0.546528,0,0,0.347002,74.8031,606.174)">
            <rect x="295.351" y="295.351" width="216.11" height="340.374" style="stroke:white;stroke-width:9.1px;"/>
        </g>
        <g transform="matrix(0.546528,0,0,0.347002,192.913,606.174)">
            <rect x="295.351" y="295.351" width="216.11" height="340.374" style="stroke:white;stroke-width:9.1px;"/>
        </g>
        <g transform="matrix(0.546528,0,0,0.347002,311.024,606.174)">
            <rect x="295.351" y="295.351" width="216.11" height="340.374" style="stroke:white;stroke-width:9.1px;"/>
        </g>
        <g transform="matrix(0.546528,0,0,0.347002,429.134,606.174)">
            <rect x="295.351" y="295.351" width="216.11" height="340.374" style="stroke:white;stroke-width:9.1px;"/>
        </g>
        <g transform="matrix(0.546528,0,0,0.347002,547.244,606.174)">
            <rect x="295.351" y="295.351" width="216.11" height="340.374" style="stroke:white;stroke-width:9.1px;"/>
        </g>
        <g transform="matrix(0.546528,0,0,0.347002,665.354,606.174)">
            <rect x="295.351" y="295.351" width="216.11" height="340.374" style="stroke:white;stroke-width:9.1px;"/>
        </g>
        <g transform="matrix(0.546528,0,0,0.347002,783.465,606.174)">
            <rect x="295.351" y="295.351" width="216.11" height="340.374" style="stroke:white;stroke-width:9.1px;"/>
        </g>
        <g transform="matrix(0.546528,0,0,0.347002,901.575,606.174)">
            <rect x="295.351" y="295.351" width="216.11" height="340.374" style="stroke:white;stroke-width:9.1px;"/>
        </g>
        <g transform="matrix(0.546528,0,0,0.347002,1019.69,606.174)">
            <rect x="295.351" y="295.351" width="216.11" height="340.374" style="stroke:white;stroke-width:9.1px;"/>
        </g>
        <g transform="matrix(0.546528,0,0,0.347002,1137.8,606.174)">
            <rect x="295.351" y="295.351" width="216.11" height="340.374" style="stroke:white;stroke-width:9.1px;"/>
        </g>
        <g transform="matrix(0.546528,0,0,0.347002,-161.417,724.284)">
            <rect x="295.351" y="295.351" width="216.11" height="340.374" style="stroke:white;stroke-width:9.1px;"/>
        </g>
        <g transform="matrix(0.546528,0,0,0.347002,-43.3071,724.284)">
            <rect x="295.351" y="295.351" width="216.11" height="340.374" style="stroke:white;stroke-width:9.1px;"/>
        </g>
        <g transform="matrix(0.546528,0,0,0.347002,74.8031,724.284)">
            <rect x="295.351" y="295.351" width="216.11" height="340.374" style="stroke:white;stroke-width:9.1px;"/>
        </g>
        <g transform="matrix(0.546528,0,0,0.347002,192.913,724.284)">
            <rect x="295.351" y="295.351" width="216.11" height="340.374" style="stroke:white;stroke-width:9.1px;"/>
        </g>
        <g transform="matrix(0.546528,0,0,0.347002,311.024,724.284)">
            <rect x="295.351" y="295.351" width="216.11" height="340.374" style="stroke:white;stroke-width:9.1px;"/>
        </g>
        <g transform="matrix(0.546528,0,0,0.347002,429.134,724.284)">
            <rect x="295.351" y="295.351" width="216.11" height="340.374" style="stroke:white;stroke-width:9.1px;"/>
        </g>
        <g transform="matrix(0.546528,0,0,0.347002,547.244,724.284)">
            <rect x="295.351" y="295.351" width="216.11" height="340.374" style="stroke:white;stroke-width:9.1px;"/>
        </g>
        <g transform="matrix(0.546528,0,0,0.347002,665.354,724.284)">
            <rect x="295.351" y="295.351" width="216.11" height="340.374" style="stroke:white;stroke-width:9.1px;"/>
        </g>
        <g transform="matrix(0.546528,0,0,0.347002,783.465,724.284)">
            <rect x="295.351" y="295.351" width="216.11" height="340.374" style="stroke:white;stroke-width:9.1px;"/>
        </g>
        <g transform="matrix(0.546528,0,0,0.347002,901.575,724.284)">
            <rect x="295.351" y="295.351" width="216.11" height="340.374" style="stroke:white;stroke-width:9.1px;"/>
        </g>
        <g transform="matrix(0.546528,0,0,0.347002,1019.69,724.284)">
            <rect x="295.351" y="295.351" width="216.11" height="340.374" style="stroke:white;stroke-width:9.1px;"/>
        </g>
        <g transform="matrix(0.546528,0,0,0.347002,1137.8,724.284)">
            <rect x="295.351" y="295.351" width="216.11" height="340.374" style="stroke:white;stroke-width:9.1px;"/>
        </g>
        <g transform="matrix(0.546528,0,0,0.347002,-161.417,842.395)">
            <rect x="295.351" y="295.351" width="216.11" height="340.374" style="stroke:white;stroke-width:9.1px;"/>
        </g>
        <g transform="matrix(0.546528,0,0,0.347002,-43.3071,842.395)">
            <rect x="295.351" y="295.351" width="216.11" height="340.374" style="stroke:white;stroke-width:9.1px;"/>
        </g>
        <g transform="matrix(0.546528,0,0,0.347002,74.8031,842.395)">
            <rect x="295.351" y="295.351" width="216.11" height="340.374" style="stroke:white;stroke-width:9.1px;"/>
        </g>
        <g transform="matrix(0.546528,0,0,0.347002,192.913,842.395)">
            <rect x="295.351" y="295.351" width="216.11" height="340.374" style="stroke:white;stroke-width:9.1px;"/>
        </g>
        <g transform="matrix(0.546528,0,0,0.347002,311.024,842.395)">
            <rect x="295.351" y="295.351" width="216.11" height="340.374" style="stroke:white;stroke-width:9.1px;"/>
        </g>
        <g transform="matrix(0.546528,0,0,0.347002,429.134,842.395)">
            <rect x="295.351" y="295.351" width="216.11" height="340.374" style="stroke:white;stroke-width:9.1px;"/>
        </g>
        <g transform="matrix(0.546528,0,0,0.347002,547.244,842.395)">
            <rect x="295.351" y="295.351" width="216.11" height="340.374" style="stroke:white;stroke-width:9.1px;"/>
        </g>
        <g transform="matrix(0.546528,0,0,0.347002,665.354,842.395)">
            <rect x="295.351" y="295.351" width="216.11" height="340.374" style="stroke:white;stroke-width:9.1px;"/>
        </g>
        <g transform="matrix(0.546528,0,0,0.347002,783.465,842.395)">
            <rect x="295.351" y="295.351" width="216.11" height="340.374" style="stroke:white;stroke-width:9.1px;"/>
        </g>
        <g transform="matrix(0.546528,0,0,0.347002,901.575,842.395)">
            <rect x="295.351" y="295.351" width="216.11" height="340.374" style="stroke:white;stroke-width:9.1px;"/>
        </g>
        <g transform="matrix(0.546528,0,0,0.347002,1019.69,842.395)">
            <rect x="295.351" y="295.351" width="216.11" height="340.374" style="stroke:white;stroke-width:9.1px;"/>
        </g>
        <g transform="matrix(0.546528,0,0,0.347002,1137.8,842.395)">
            <rect x="295.351" y="295.351" width="216.11" height="340.374" style="stroke:white;stroke-width:9.1px;"/>
        </g>
        <g transform="matrix(0.546528,0,0,0.347002,-161.417,960.505)">
            <rect x="295.351" y="295.351" width="216.11" height="340.374" style="stroke:white;stroke-width:9.1px;"/>
        </g>
        <g transform="matrix(0.546528,0,0,0.347002,-43.3071,960.505)">
            <rect x="295.351" y="295.351" width="216.11" height="340.374" style="stroke:white;stroke-width:9.1px;"/>
        </g>
        <g transform="matrix(0.546528,0,0,0.347002,74.8031,960.505)">
            <rect x="295.351" y="295.351" width="216.11" height="340.374" style="stroke:white;stroke-width:9.1px;"/>
        </g>
        <g transform="matrix(0.546528,0,0,0.347002,192.913,960.505)">
            <rect x="295.351" y="295.351" width="216.11" height="340.374" style="stroke:white;stroke-width:9.1px;"/>
        </g>
        <g transform="matrix(0.546528,0,0,0.347002,311.024,960.505)">
            <rect x="295.351" y="295.351" width="216.11" height="340.374" style="stroke:white;stroke-width:9.1px;"/>
        </g>
        <g transform="matrix(0.546528,0,0,0.347002,429.134,960.505)">
            <rect x="295.351" y="295.351" width="216.11" height="340.374" style="stroke:white;stroke-width:9.1px;"/>
        </g>
        <g transform="matrix(0.546528,0,0,0.347002,547.244,960.505)">
            <rect x="295.351" y="295.351" width="216.11" height="340.374" style="stroke:white;stroke-width:9.1px;"/>
        </g>
        <g transform="matrix(0.546528,0,0,0.347002,665.354,960.505)">
            <rect x="295.351" y="295.351" width="216.11" height="340.374" style="stroke:white;stroke-width:9.1px;"/>
        </g>
        <g transform="matrix(0.546528,0,0,0.347002,783.465,960.505)">
            <rect x="295.351" y="295.351" width="216.11" height="340.374" style="stroke:white;stroke-width:9.1px;"/>
        </g>
        <g transform="matrix(0.546528,0,0,0.347002,901.575,960.505)">
            <rect x="295.351" y="295.351" width="216.11" height="340.374" style="stroke:white;stroke-width:9.1px;"/>
        </g>
        <g transform="matrix(0.546528,0,0,0.347002,1019.69,960.505)">
            <rect x="295.351" y="295.351" width="216.11" height="340.374" style="stroke:white;stroke-width:9.1px;"/>
        </g>
        <g transform="matrix(0.546528,0,0,0.347002,1137.8,960.505)">
            <rect x="295.351" y="295.351" width="216.11" height="340.374" style="stroke:white;stroke-width:9.1px;"/>
        </g>
        <g transform="matrix(0.546528,0,0,0.347002,-161.417,1078.62)">
            <rect x="295.351" y="295.351" width="216.11" height="340.374" style="stroke:white;stroke-width:9.1px;"/>
        </g>
        <g transform="matrix(0.546528,0,0,0.347002,-43.3071,1078.62)">
            <rect x="295.351" y="295.351" width="216.11" height="340.374" style="stroke:white;stroke-width:9.1px;"/>
        </g>
        <g transform="matrix(0.546528,0,0,0.347002,74.8031,1078.62)">
            <rect x="295.351" y="295.351" width="216.11" height="340.374" style="stroke:white;stroke-width:9.1px;"/>
        </g>
        <g transform="matrix(0.546528,0,0,0.347002,192.913,1078.62)">
            <rect x="295.351" y="295.351" width="216.11" height="340.374" style="stroke:white;stroke-width:9.1px;"/>
        </g>
        <g transform="matrix(0.546528,0,0,0.347002,311.024,1078.62)">
            <rect x="295.351" y="295.351" width="216.11" height="340.374" style="stroke:white;stroke-width:9.1px;"/>
        </g>
        <g transform="matrix(0.546528,0,0,0.347002,429.134,1078.62)">
            <rect x="295.351" y="295.351" width="216.11" height="340.374" style="stroke:white;stroke-width:9.1px;"/>
        </g>
        <g transform="matrix(0.546528,0,0,0.347002,547.244,1078.62)">
            <rect x="295.351" y="295.351" width="216.11" height="340.374" style="stroke:white;stroke-width:9.1px;"/>
        </g>
        <g transform="matrix(0.546528,0,0,0.347002,665.354,1078.62)">
            <rect x="295.351" y="295.351" width="216.11" height="340.374" style="stroke:white;stroke-width:9.1px;"/>
        </g>
        <g transform="matrix(0.546528,0,0,0.347002,783.465,1078.62)">
            <rect x="295.351" y="295.351" width="216.11" height="340.374" style="stroke:white;stroke-width:9.1px;"/>
        </g>
        <g transform="matrix(0.546528,0,0,0.347002,901.575,1078.62)">
            <rect x="295.351" y="295.351" width="216.11" height="340.374" style="stroke:white;stroke-width:9.1px;"/>
        </g>
        <g transform="matrix(0.546528,0,0,0.347002,1019.69,1078.62)">
            <rect x="295.351" y="295.351" width="216.11" height="340.374" style="stroke:white;stroke-width:9.1px;"/>
        </g>
        <g transform="matrix(0.546528,0,0,0.347002,1137.8,1078.62)">
            <rect x="295.351" y="295.351" width="216.11" height="340.374" style="stroke:white;stroke-width:9.1px;"/>
        </g>
        <g transform="matrix(0.546528,0,0,0.347002,-161.417,1196.73)">
            <rect x="295.351" y="295.351" width="216.11" height="340.374" style="stroke:white;stroke-width:9.1px;"/>
        </g>
        <g transform="matrix(0.546528,0,0,0.347002,-43.3071,1196.73)">
            <rect x="295.351" y="295.351" width="216.11" height="340.374" style="stroke:white;stroke-width:9.1px;"/>
        </g>
        <g transform="matrix(0.546528,0,0,0.347002,74.8031,1196.73)">
            <rect x="295.351" y="295.351" width="216.11" height="340.374" style="stroke:white;stroke-width:9.1px;"/>
        </g>
        <g transform="matrix(0.546528,0,0,0.347002,192.913,1196.73)">
            <rect x="295.351" y="295.351" width="216.11" height="340.374" style="stroke:white;stroke-width:9.1px;"/>
        </g>
        <g transform="matrix(0.546528,0,0,0.347002,311.024,1196.73)">
            <rect x="295.351" y="295.351" width="216.11" height="340.374" style="stroke:white;stroke-width:9.1px;"/>
        </g>
        <g transform="matrix(0.546528,0,0,0.347002,429.134,1196.73)">
            <rect x="295.351" y="295.351" width="216.11" height="340.374" style="stroke:white;stroke-width:9.1px;"/>
        </g>
        <g transform="matrix(0.546528,0,0,0.347002,547.244,1196.73)">
            <rect x="295.351" y="295.351" width="216.11" height="340.374" style="stroke:white;stroke-width:9.1px;"/>
        </g>
        <g transform="matrix(0.546528,0,0,0.347002,665.354,1196.73)">
            <rect x="295.351" y="295.351" width="216.11" height="340.374" style="stroke:white;stroke-width:9.1px;"/>
        </g>
        <g transform="matrix(0.546528,0,0,0.347002,783.465,1196.73)">
            <rect x="295.351" y="295.351" width="216.11" height="340.374" style="stroke:white;stroke-width:9.1px;"/>
        </g>
        <g transform="matrix(0.546528,0,0,0.347002,901.575,1196.73)">
            <rect x="295.351" y="295.351" width="216.11" height="340.374" style="stroke:white;stroke-width:9.1px;"/>
        </g>
        <g transform="matrix(0.546528,0,0,0.347002,1019.69,1196.73)">
            <rect x="295.351" y="295.351" width="216.11" height="340.374" style="stroke:white;stroke-width:9.1px;"/>
        </g>
        <g transform="matrix(0.546528,0,0,0.347002,1137.8,1196.73)">
            <rect x="295.351" y="295.351" width="216.11" height="340.374" style="stroke:white;stroke-width:9.1px;"/>
        </g>
    </g>
</svg>
