<?xml version="1.0" encoding="UTF-8" standalone="no"?>
<!DOCTYPE svg PUBLIC "-//W3C//DTD SVG 1.1//EN" "http://www.w3.org/Graphics/SVG/1.1/DTD/svg11.dtd">
<svg width="100%" height="100%" viewBox="0 0 164 164" version="1.1" xmlns="http://www.w3.org/2000/svg" xmlns:xlink="http://www.w3.org/1999/xlink" xml:space="preserve" xmlns:serif="http://www.serif.com/" style="fill-rule:evenodd;clip-rule:evenodd;stroke-linejoin:round;stroke-miterlimit:2;">
    <g transform="matrix(1,0,0,1,-26.2558,-15.7558)">
        <g>
            <path d="M105.997,155.353C105.997,154.247 106.895,153.35 108,153.35C109.105,153.35 110.003,154.247 110.003,155.353L110.003,177.241C110.003,178.347 109.105,179.244 108,179.244C106.895,179.244 105.997,178.347 105.997,177.241L105.997,155.353Z" style="fill:white;"/>
            <g transform="matrix(-1,1.22465e-16,-1.22465e-16,-1,216,195)">
                <path d="M105.997,155.353C105.997,154.247 106.895,153.35 108,153.35C109.105,153.35 110.003,154.247 110.003,155.353L110.003,177.241C110.003,178.347 109.105,179.244 108,179.244C106.895,179.244 105.997,178.347 105.997,177.241L105.997,155.353Z" style="fill:white;fill-opacity:0;"/>
            </g>
            <g transform="matrix(6.12323e-17,1,-1,6.12323e-17,205.5,-10.5)">
                <path d="M105.997,155.353C105.997,154.247 106.895,153.35 108,153.35C109.105,153.35 110.003,154.247 110.003,155.353L110.003,177.241C110.003,178.347 109.105,179.244 108,179.244C106.895,179.244 105.997,178.347 105.997,177.241L105.997,155.353Z" style="fill:white;"/>
            </g>
            <g transform="matrix(-1.83697e-16,-1,1,-1.83697e-16,10.5,205.5)">
                <path d="M105.997,155.353C105.997,154.247 106.895,153.35 108,153.35C109.105,153.35 110.003,154.247 110.003,155.353L110.003,177.241C110.003,178.347 109.105,179.244 108,179.244C106.895,179.244 105.997,178.347 105.997,177.241L105.997,155.353Z" style="fill:white;"/>
            </g>
            <g transform="matrix(0.965926,-0.258819,0.258819,0.965926,-21.5548,31.2747)">
                <path d="M105.997,155.353C105.997,154.247 106.895,153.35 108,153.35C109.105,153.35 110.003,154.247 110.003,155.353L110.003,177.241C110.003,178.347 109.105,179.244 108,179.244C106.895,179.244 105.997,178.347 105.997,177.241L105.997,155.353Z" style="fill:white;"/>
            </g>
            <g transform="matrix(-0.965926,0.258819,-0.258819,-0.965926,237.555,163.725)">
                <path d="M105.997,155.353C105.997,154.247 106.895,153.35 108,153.35C109.105,153.35 110.003,154.247 110.003,155.353L110.003,177.241C110.003,178.347 109.105,179.244 108,179.244C106.895,179.244 105.997,178.347 105.997,177.241L105.997,155.353Z" style="fill:white;fill-opacity:0;"/>
            </g>
            <g transform="matrix(0.258819,0.965926,-0.965926,0.258819,174.225,-32.0548)">
                <path d="M105.997,155.353C105.997,154.247 106.895,153.35 108,153.35C109.105,153.35 110.003,154.247 110.003,155.353L110.003,177.241C110.003,178.347 109.105,179.244 108,179.244C106.895,179.244 105.997,178.347 105.997,177.241L105.997,155.353Z" style="fill:white;"/>
            </g>
            <g transform="matrix(-0.258819,-0.965926,0.965926,-0.258819,41.7747,227.055)">
                <path d="M105.997,155.353C105.997,154.247 106.895,153.35 108,153.35C109.105,153.35 110.003,154.247 110.003,155.353L110.003,177.241C110.003,178.347 109.105,179.244 108,179.244C106.895,179.244 105.997,178.347 105.997,177.241L105.997,155.353Z" style="fill:white;"/>
            </g>
            <g transform="matrix(0.866025,-0.5,0.5,0.866025,-34.2807,67.0625)">
                <path d="M105.997,155.353C105.997,154.247 106.895,153.35 108,153.35C109.105,153.35 110.003,154.247 110.003,155.353L110.003,177.241C110.003,178.347 109.105,179.244 108,179.244C106.895,179.244 105.997,178.347 105.997,177.241L105.997,155.353Z" style="fill:white;"/>
            </g>
            <g transform="matrix(-0.866025,0.5,-0.5,-0.866025,250.281,127.937)">
                <path d="M105.997,155.353C105.997,154.247 106.895,153.35 108,153.35C109.105,153.35 110.003,154.247 110.003,155.353L110.003,177.241C110.003,178.347 109.105,179.244 108,179.244C106.895,179.244 105.997,178.347 105.997,177.241L105.997,155.353Z" style="fill:white;"/>
            </g>
            <g transform="matrix(0.5,0.866025,-0.866025,0.5,138.437,-44.7807)">
                <path d="M105.997,155.353C105.997,154.247 106.895,153.35 108,153.35C109.105,153.35 110.003,154.247 110.003,155.353L110.003,177.241C110.003,178.347 109.105,179.244 108,179.244C106.895,179.244 105.997,178.347 105.997,177.241L105.997,155.353Z" style="fill:white;"/>
            </g>
            <g transform="matrix(-0.5,-0.866025,0.866025,-0.5,77.5625,239.781)">
                <path d="M105.997,155.353C105.997,154.247 106.895,153.35 108,153.35C109.105,153.35 110.003,154.247 110.003,155.353L110.003,177.241C110.003,178.347 109.105,179.244 108,179.244C106.895,179.244 105.997,178.347 105.997,177.241L105.997,155.353Z" style="fill:white;"/>
            </g>
            <g transform="matrix(0.707107,-0.707107,0.707107,0.707107,-37.3104,104.925)">
                <path d="M105.997,155.353C105.997,154.247 106.895,153.35 108,153.35C109.105,153.35 110.003,154.247 110.003,155.353L110.003,177.241C110.003,178.347 109.105,179.244 108,179.244C106.895,179.244 105.997,178.347 105.997,177.241L105.997,155.353Z" style="fill:white;"/>
            </g>
            <g transform="matrix(-0.707107,0.707107,-0.707107,-0.707107,253.31,90.0754)">
                <path d="M105.997,155.353C105.997,154.247 106.895,153.35 108,153.35C109.105,153.35 110.003,154.247 110.003,155.353L110.003,177.241C110.003,178.347 109.105,179.244 108,179.244C106.895,179.244 105.997,178.347 105.997,177.241L105.997,155.353Z" style="fill:white;"/>
            </g>
            <g transform="matrix(0.707107,0.707107,-0.707107,0.707107,100.575,-47.8104)">
                <path d="M105.997,155.353C105.997,154.247 106.895,153.35 108,153.35C109.105,153.35 110.003,154.247 110.003,155.353L110.003,177.241C110.003,178.347 109.105,179.244 108,179.244C106.895,179.244 105.997,178.347 105.997,177.241L105.997,155.353Z" style="fill:white;"/>
            </g>
            <g transform="matrix(-0.707107,-0.707107,0.707107,-0.707107,115.425,242.81)">
                <path d="M105.997,155.353C105.997,154.247 106.895,153.35 108,153.35C109.105,153.35 110.003,154.247 110.003,155.353L110.003,177.241C110.003,178.347 109.105,179.244 108,179.244C106.895,179.244 105.997,178.347 105.997,177.241L105.997,155.353Z" style="fill:white;"/>
            </g>
            <g transform="matrix(0.5,-0.866025,0.866025,0.5,-30.4375,142.281)">
                <path d="M105.997,155.353C105.997,154.247 106.895,153.35 108,153.35C109.105,153.35 110.003,154.247 110.003,155.353L110.003,177.241C110.003,178.347 109.105,179.244 108,179.244C106.895,179.244 105.997,178.347 105.997,177.241L105.997,155.353Z" style="fill:white;"/>
            </g>
            <g transform="matrix(-0.5,0.866025,-0.866025,-0.5,246.437,52.7193)">
                <path d="M105.997,155.353C105.997,154.247 106.895,153.35 108,153.35C109.105,153.35 110.003,154.247 110.003,155.353L110.003,177.241C110.003,178.347 109.105,179.244 108,179.244C106.895,179.244 105.997,178.347 105.997,177.241L105.997,155.353Z" style="fill:white;"/>
            </g>
            <g transform="matrix(0.866025,0.5,-0.5,0.866025,63.2193,-40.9375)">
                <path d="M105.997,155.353C105.997,154.247 106.895,153.35 108,153.35C109.105,153.35 110.003,154.247 110.003,155.353L110.003,177.241C110.003,178.347 109.105,179.244 108,179.244C106.895,179.244 105.997,178.347 105.997,177.241L105.997,155.353Z" style="fill:white;"/>
            </g>
            <g transform="matrix(-0.866025,-0.5,0.5,-0.866025,152.781,235.937)">
                <path d="M105.997,155.353C105.997,154.247 106.895,153.35 108,153.35C109.105,153.35 110.003,154.247 110.003,155.353L110.003,177.241C110.003,178.347 109.105,179.244 108,179.244C106.895,179.244 105.997,178.347 105.997,177.241L105.997,155.353Z" style="fill:white;"/>
            </g>
            <g transform="matrix(0.258819,-0.965926,0.965926,0.258819,-14.1302,176.585)">
                <path d="M105.997,155.353C105.997,154.247 106.895,153.35 108,153.35C109.105,153.35 110.003,154.247 110.003,155.353L110.003,177.241C110.003,178.347 109.105,179.244 108,179.244C106.895,179.244 105.997,178.347 105.997,177.241L105.997,155.353Z" style="fill:white;"/>
            </g>
            <g transform="matrix(-0.258819,0.965926,-0.965926,-0.258819,230.13,18.4149)">
                <path d="M105.997,155.353C105.997,154.247 106.895,153.35 108,153.35C109.105,153.35 110.003,154.247 110.003,155.353L110.003,177.241C110.003,178.347 109.105,179.244 108,179.244C106.895,179.244 105.997,178.347 105.997,177.241L105.997,155.353Z" style="fill:white;"/>
            </g>
            <g transform="matrix(0.965926,0.258819,-0.258819,0.965926,28.9149,-24.6302)">
                <path d="M105.997,155.353C105.997,154.247 106.895,153.35 108,153.35C109.105,153.35 110.003,154.247 110.003,155.353L110.003,177.241C110.003,178.347 109.105,179.244 108,179.244C106.895,179.244 105.997,178.347 105.997,177.241L105.997,155.353Z" style="fill:white;"/>
            </g>
            <g transform="matrix(-0.965926,-0.258819,0.258819,-0.965926,187.085,219.63)">
                <path d="M105.997,155.353C105.997,154.247 106.895,153.35 108,153.35C109.105,153.35 110.003,154.247 110.003,155.353L110.003,177.241C110.003,178.347 109.105,179.244 108,179.244C106.895,179.244 105.997,178.347 105.997,177.241L105.997,155.353Z" style="fill:white;fill-opacity:0;"/>
            </g>
        </g>
    </g>
</svg>
