<?xml version="1.0" encoding="UTF-8" standalone="no"?>
<!DOCTYPE svg PUBLIC "-//W3C//DTD SVG 1.1//EN" "http://www.w3.org/Graphics/SVG/1.1/DTD/svg11.dtd">
<svg width="100%" height="100%" viewBox="0 0 164 165" version="1.1" xmlns="http://www.w3.org/2000/svg" xmlns:xlink="http://www.w3.org/1999/xlink" xml:space="preserve" xmlns:serif="http://www.serif.com/" style="fill-rule:evenodd;clip-rule:evenodd;stroke-linecap:round;stroke-linejoin:round;stroke-miterlimit:1.5;">
    <g transform="matrix(1,0,0,1,-26.2558,-14.5637)">
        <g>
            <g transform="matrix(-0.561969,6.88213e-17,-5.61597e-17,-0.458579,165.978,180.236)">
                <path d="M103.169,6.525L103.169,54.269" style="fill:none;stroke:rgb(224,224,224);stroke-width:7.8px;"/>
            </g>
            <g transform="matrix(3.44106e-17,0.561969,-0.458579,2.80798e-17,190.736,39.5223)">
                <path d="M103.169,6.525L103.169,54.269" style="fill:none;stroke:rgb(224,224,224);stroke-width:7.8px;"/>
            </g>
            <g transform="matrix(3.44106e-17,-0.561969,0.458579,2.80798e-17,25.2635,155.478)">
                <path d="M103.169,6.525L103.169,54.269" style="fill:none;stroke:rgb(224,224,224);stroke-width:7.8px;"/>
            </g>
            <g transform="matrix(0.397372,0.397372,-0.324264,0.324264,125.507,-1.99994)">
                <path d="M103.169,6.525L103.169,54.269" style="fill:none;stroke:rgb(224,224,224);stroke-width:7.8px;"/>
            </g>
            <g transform="matrix(-0.397372,-0.397372,0.324264,-0.324264,90.4929,197)">
                <path d="M103.169,6.525L103.169,54.269" style="fill:none;stroke:rgb(224,224,224);stroke-width:7.8px;"/>
            </g>
            <g transform="matrix(-0.397372,0.397372,-0.324264,-0.324264,207.5,115.007)">
                <path d="M103.169,6.525L103.169,54.269" style="fill:none;stroke:rgb(224,224,224);stroke-width:7.8px;"/>
            </g>
            <g transform="matrix(0.397372,-0.397372,0.324264,0.324264,8.50006,79.9929)">
                <path d="M103.169,6.525L103.169,54.269" style="fill:none;stroke:rgb(224,224,224);stroke-width:7.8px;"/>
            </g>
            <g transform="matrix(0.486679,-0.280984,0.229289,0.397141,16.4216,54.837)">
                <path d="M103.169,6.525L103.169,54.269" style="fill:none;stroke:rgb(224,224,224);stroke-width:7.8px;"/>
            </g>
            <g transform="matrix(-0.486679,0.280984,-0.229289,-0.397141,199.578,140.163)">
                <path d="M103.169,6.525L103.169,54.269" style="fill:none;stroke:rgb(224,224,224);stroke-width:7.8px;"/>
            </g>
            <g transform="matrix(0.280984,0.486679,-0.397141,0.229289,150.663,5.92161)">
                <path d="M103.169,6.525L103.169,54.269" style="fill:none;stroke:rgb(224,224,224);stroke-width:7.8px;"/>
            </g>
            <g transform="matrix(-0.280984,-0.486679,0.397141,-0.229289,65.337,189.078)">
                <path d="M103.169,6.525L103.169,54.269" style="fill:none;stroke:rgb(224,224,224);stroke-width:7.8px;"/>
            </g>
            <g transform="matrix(-0.54282,-0.145448,0.118689,-0.442953,142.588,192.423)">
                <path d="M103.169,6.525L103.169,54.269" style="fill:none;stroke:rgb(224,224,224);stroke-width:7.8px;"/>
            </g>
            <g transform="matrix(-0.145448,0.54282,-0.442953,-0.118689,202.923,62.9116)">
                <path d="M103.169,6.525L103.169,54.269" style="fill:none;stroke:rgb(224,224,224);stroke-width:7.8px;"/>
            </g>
            <g transform="matrix(0.145448,-0.54282,0.442953,0.118689,13.077,132.088)">
                <path d="M103.169,6.525L103.169,54.269" style="fill:none;stroke:rgb(224,224,224);stroke-width:7.8px;"/>
            </g>
            <g transform="matrix(0.486679,0.280984,-0.229289,0.397141,99.1581,-3.14074)">
                <path d="M103.169,6.525L103.169,54.269" style="fill:none;stroke:rgb(224,224,224);stroke-width:7.8px;"/>
            </g>
            <g transform="matrix(-0.486679,-0.280984,0.229289,-0.397141,116.842,198.141)">
                <path d="M103.169,6.525L103.169,54.269" style="fill:none;stroke:rgb(224,224,224);stroke-width:7.8px;"/>
            </g>
            <g transform="matrix(-0.280984,0.486679,-0.397141,-0.229289,208.641,88.6581)">
                <path d="M103.169,6.525L103.169,54.269" style="fill:none;stroke:rgb(224,224,224);stroke-width:7.8px;"/>
            </g>
            <g transform="matrix(0.280984,-0.486679,0.397141,0.229289,7.35927,106.342)">
                <path d="M103.169,6.525L103.169,54.269" style="fill:none;stroke:rgb(224,224,224);stroke-width:7.8px;"/>
            </g>
            <g transform="matrix(0.145448,0.54282,-0.442953,0.118689,172.912,20.0841)">
                <path d="M103.169,6.525L103.169,54.269" style="fill:none;stroke:rgb(224,224,224);stroke-width:7.8px;"/>
            </g>
            <g transform="matrix(-0.145448,-0.54282,0.442953,-0.118689,43.0884,174.916)">
                <path d="M103.169,6.525L103.169,54.269" style="fill:none;stroke:rgb(224,224,224);stroke-width:7.8px;"/>
            </g>
            <g transform="matrix(-0.54282,0.145448,-0.118689,-0.442953,185.416,162.412)">
                <path d="M103.169,6.525L103.169,54.269" style="fill:none;stroke:rgb(224,224,224);stroke-width:7.8px;"/>
            </g>
            <g transform="matrix(0.674055,0,0,0.674055,29.4116,-24.3026)">
                <circle cx="116.591" cy="83.591" r="22.963" style="fill:url(#_Radial1);stroke:rgb(224,224,224);stroke-width:5.93px;"/>
            </g>
        </g>
    </g>
    <defs>
        <radialGradient id="_Radial1" cx="0" cy="0" r="1" gradientUnits="userSpaceOnUse" gradientTransform="matrix(22.9633,0,0,22.9633,116.591,83.5909)"><stop offset="0" style="stop-color:rgb(17,17,17);stop-opacity:1"/><stop offset="0.59" style="stop-color:rgb(15,17,17);stop-opacity:0.86"/><stop offset="0.75" style="stop-color:rgb(10,17,17);stop-opacity:0.47"/><stop offset="0.89" style="stop-color:rgb(5,17,17);stop-opacity:0"/><stop offset="1" style="stop-color:rgb(0,17,17);stop-opacity:0"/></radialGradient>
    </defs>
</svg>
