<?xml version="1.0" encoding="UTF-8" standalone="no"?>
<!DOCTYPE svg PUBLIC "-//W3C//DTD SVG 1.1//EN" "http://www.w3.org/Graphics/SVG/1.1/DTD/svg11.dtd">
<svg width="100%" height="100%" viewBox="0 0 164 163" version="1.1" xmlns="http://www.w3.org/2000/svg" xmlns:xlink="http://www.w3.org/1999/xlink" xml:space="preserve" xmlns:serif="http://www.serif.com/" style="fill-rule:evenodd;clip-rule:evenodd;stroke-linecap:round;stroke-linejoin:round;stroke-miterlimit:1.5;">
    <g transform="matrix(1,0,0,1,-26.2558,-16.5637)">
        <g transform="matrix(1,0,0,1,4.83108,2.44691)">
            <g transform="matrix(6.12323e-17,1,-0.816022,4.99669e-17,188.238,-8.11583)">
                <path d="M103.169,6.525L103.169,54.269" style="fill:none;stroke:rgb(34,34,34);stroke-width:4.38px;"/>
            </g>
            <g transform="matrix(-1.83697e-16,-1,0.816022,-1.49901e-16,18.1001,198.222)">
                <path d="M103.169,6.525L103.169,54.269" style="fill:none;stroke:rgb(34,34,34);stroke-width:4.38px;"/>
            </g>
            <g transform="matrix(-1,1.22465e-16,-9.99339e-17,-0.816022,206.338,180.122)">
                <path d="M103.169,6.525L103.169,54.269" style="fill:none;stroke:rgb(34,34,34);stroke-width:4.38px;"/>
            </g>
            <g transform="matrix(-0.258819,0.965926,-0.788217,-0.211202,212.041,17.417)">
                <path d="M103.169,6.525L103.169,54.269" style="fill:none;stroke:rgb(34,34,34);stroke-width:4.38px;"/>
            </g>
            <g transform="matrix(0.258819,-0.965926,0.788217,0.211202,-5.70334,172.689)">
                <path d="M103.169,6.525L103.169,54.269" style="fill:none;stroke:rgb(34,34,34);stroke-width:4.38px;"/>
            </g>
            <g transform="matrix(-0.965926,-0.258819,0.211202,-0.788217,180.805,203.925)">
                <path d="M103.169,6.525L103.169,54.269" style="fill:none;stroke:rgb(34,34,34);stroke-width:4.38px;"/>
            </g>
            <g transform="matrix(0.866025,0.5,-0.408011,0.706696,56.3564,-30.2031)">
                <path d="M103.169,6.525L103.169,54.269" style="fill:none;stroke:rgb(34,34,34);stroke-width:4.38px;"/>
            </g>
            <g transform="matrix(-0.5,0.866025,-0.706696,-0.408011,228.425,48.2406)">
                <path d="M103.169,6.525L103.169,54.269" style="fill:none;stroke:rgb(34,34,34);stroke-width:4.38px;"/>
            </g>
            <g transform="matrix(0.5,-0.866025,0.706696,0.408011,-22.0873,141.866)">
                <path d="M103.169,6.525L103.169,54.269" style="fill:none;stroke:rgb(34,34,34);stroke-width:4.38px;"/>
            </g>
            <g transform="matrix(-0.866025,-0.5,0.408011,-0.706696,149.981,220.309)">
                <path d="M103.169,6.525L103.169,54.269" style="fill:none;stroke:rgb(34,34,34);stroke-width:4.38px;"/>
            </g>
            <g transform="matrix(0.707107,0.707107,-0.577015,0.577015,90.3702,-38.0511)">
                <path d="M103.169,6.525L103.169,54.269" style="fill:none;stroke:rgb(34,34,34);stroke-width:4.38px;"/>
            </g>
            <g transform="matrix(-0.707107,0.707107,-0.577015,-0.577015,236.273,82.2544)">
                <path d="M103.169,6.525L103.169,54.269" style="fill:none;stroke:rgb(34,34,34);stroke-width:4.38px;"/>
            </g>
            <g transform="matrix(0.707107,-0.707107,0.577015,0.577015,-29.9353,107.852)">
                <path d="M103.169,6.525L103.169,54.269" style="fill:none;stroke:rgb(34,34,34);stroke-width:4.38px;"/>
            </g>
            <g transform="matrix(-0.707107,-0.707107,0.577015,-0.577015,115.968,228.157)">
                <path d="M103.169,6.525L103.169,54.269" style="fill:none;stroke:rgb(34,34,34);stroke-width:4.38px;"/>
            </g>
            <g transform="matrix(0.5,0.866025,-0.706696,0.408011,125.256,-36.8282)">
                <path d="M103.169,6.525L103.169,54.269" style="fill:none;stroke:rgb(34,34,34);stroke-width:4.38px;"/>
            </g>
            <g transform="matrix(-0.866025,0.5,-0.408011,-0.706696,235.05,117.14)">
                <path d="M103.169,6.525L103.169,54.269" style="fill:none;stroke:rgb(34,34,34);stroke-width:4.38px;"/>
            </g>
            <g transform="matrix(0.866025,-0.5,0.408011,0.706696,-28.7124,72.9658)">
                <path d="M103.169,6.525L103.169,54.269" style="fill:none;stroke:rgb(34,34,34);stroke-width:4.38px;"/>
            </g>
            <g transform="matrix(-0.5,-0.866025,0.706696,-0.408011,81.0816,226.934)">
                <path d="M103.169,6.525L103.169,54.269" style="fill:none;stroke:rgb(34,34,34);stroke-width:4.38px;"/>
            </g>
            <g transform="matrix(0.258819,0.965926,-0.788217,0.211202,158.637,-26.6179)">
                <path d="M103.169,6.525L103.169,54.269" style="fill:none;stroke:rgb(34,34,34);stroke-width:4.38px;"/>
            </g>
            <g transform="matrix(-0.965926,0.258819,-0.211202,-0.788217,224.84,150.521)">
                <path d="M103.169,6.525L103.169,54.269" style="fill:none;stroke:rgb(34,34,34);stroke-width:4.38px;"/>
            </g>
            <g transform="matrix(-0.258819,-0.965926,0.788217,-0.211202,47.7008,216.724)">
                <path d="M103.169,6.525L103.169,54.269" style="fill:none;stroke:rgb(34,34,34);stroke-width:4.38px;"/>
            </g>
        </g>
        <g transform="matrix(1.43813,0,0,1.43813,-67.439,-18.8064)">
            <circle cx="121.991" cy="80.874" r="56.279" style="fill:url(#_Radial1);"/>
        </g>
    </g>
    <defs>
        <radialGradient id="_Radial1" cx="0" cy="0" r="1" gradientUnits="userSpaceOnUse" gradientTransform="matrix(56.279,0,0,56.279,121.991,80.8736)"><stop offset="0" style="stop-color:rgb(17,17,17);stop-opacity:1"/><stop offset="0.59" style="stop-color:rgb(15,17,17);stop-opacity:0.86"/><stop offset="0.75" style="stop-color:rgb(10,17,17);stop-opacity:0.47"/><stop offset="0.89" style="stop-color:rgb(5,17,17);stop-opacity:0"/><stop offset="1" style="stop-color:rgb(0,17,17);stop-opacity:0"/></radialGradient>
    </defs>
</svg>
